HIERARCHY
ROOT Hips
{
	OFFSET 0.000000 0.000000 0.000000 
	CHANNELS 6 Xposition Yposition Zposition Zrotation Yrotation Xrotation
	JOINT LeftUpLeg
	{
		OFFSET 1.363060 -1.794630 0.839290 
		CHANNELS 3 Zrotation Yrotation Xrotation
		JOINT LeftLeg
		{
			OFFSET 2.448110 -6.726130 0.000000 
			CHANNELS 3 Zrotation Yrotation Xrotation
			JOINT LeftFoot
			{
				OFFSET 2.562200 -7.039590 0.000000 
				CHANNELS 3 Zrotation Yrotation Xrotation
				JOINT LeftToeBase
				{
					OFFSET 0.157640 -0.433110 2.322550 
					CHANNELS 3 Zrotation Yrotation Xrotation
					End Site
					{
						OFFSET 0.000000 0.000000 0.000000 
					}
				}
			}
		}
	}
	JOINT RightUpLeg
	{
		OFFSET -1.305520 -1.794630 0.839290 
		CHANNELS 3 Zrotation Yrotation Xrotation
		JOINT RightLeg
		{
			OFFSET -2.542530 -6.985550 0.000000 
			CHANNELS 3 Zrotation Yrotation Xrotation
			JOINT RightFoot
			{
				OFFSET -2.568260 -7.056230 0.000000 
				CHANNELS 3 Zrotation Yrotation Xrotation
				JOINT RightToeBase
				{
					OFFSET -0.164730 -0.452590 2.363150 
					CHANNELS 3 Zrotation Yrotation Xrotation
					End Site
					{
						OFFSET 0.000000 0.000000 0.000000 
					}
				}
			}
		}
	}
	JOINT Spine
	{
		OFFSET 0.028270 2.035590 -0.193380 
		CHANNELS 3 Zrotation Yrotation Xrotation
		JOINT Spine1
		{
			OFFSET 0.056720 2.048850 -0.042750 
			CHANNELS 3 Zrotation Yrotation Xrotation
			JOINT Neck1
			{
				OFFSET -0.054170 1.746240 0.172020 
				CHANNELS 3 Zrotation Yrotation Xrotation
				JOINT Head
				{
					OFFSET 0.104070 1.761360 -0.123970 
					CHANNELS 3 Zrotation Yrotation Xrotation
					End Site
					{
						OFFSET 0.000000 0.000000 0.000000 
					}
				}
			}
			JOINT LeftArm
			{
				OFFSET 3.362410 1.200890 -0.311210 
				CHANNELS 3 Zrotation Yrotation Xrotation
				JOINT LeftForeArm
				{
					OFFSET 4.983000 -0.000000 -0.000000 
					CHANNELS 3 Zrotation Yrotation Xrotation
					JOINT LeftHand
					{
						OFFSET 3.483560 -0.000000 -0.000000 
						CHANNELS 3 Zrotation Yrotation Xrotation
						JOINT LeftHandIndex1
						{
							OFFSET 0.715260 -0.000000 -0.000000 
							CHANNELS 3 Zrotation Yrotation Xrotation
							End Site
							{
								OFFSET 0.000000 0.000000 0.000000 
							}
						}
					}
				}
			}
			JOINT RightArm
			{
				OFFSET -3.136600 1.374050 -0.404650 
				CHANNELS 3 Zrotation Yrotation Xrotation
				JOINT RightForeArm
				{
					OFFSET -5.241900 -0.000000 -0.000000 
					CHANNELS 3 Zrotation Yrotation Xrotation
					JOINT RightHand
					{
						OFFSET -3.444170 -0.000000 -0.000000 
						CHANNELS 3 Zrotation Yrotation Xrotation
						JOINT RightHandIndex1
						{
							OFFSET -0.622530 -0.000000 -0.000000 
							CHANNELS 3 Zrotation Yrotation Xrotation
							End Site
							{
								OFFSET 0.000000 0.000000 0.000000 
							}
						}
					}
				}
			}
		}
	}
}
MOTION
Frames: 16
Frame Time: 0.041667
-8.491930 17.241871 14.899942 -168.550293 -0.507369 -164.340621 -11.543852 17.470065 -53.961399 10.223430 17.907746 60.360131 0.847004 11.318578 -26.916334 0.080700 1.832500 5.043000 28.857948 -11.500617 -16.844343 -3.603268 -10.699316 32.687879 -2.342103 1.442205 -28.286653 -2.151200 9.174200 -26.341700 1.073816 6.671707 -5.512363 0.011478 3.311135 0.543721 3.841831 -4.357239 23.749163 -0.558500 -1.475600 7.831700 -89.349973 22.741105 33.150645 55.327722 -54.902904 -23.971461 -1.647810 0.944134 -12.824379 -7.125000 0.000000 0.000000 82.517385 -11.835168 39.290629 -70.797949 57.940138 -39.821271 0.893272 -0.697931 -8.546161 7.125000 0.000000 0.000000 
-8.537058 17.245983 14.846590 -168.683113 -3.543066 -165.719322 -11.729690 16.746889 -52.246514 9.806637 17.690414 59.111937 0.963465 11.367832 -27.809839 0.069300 1.698000 4.671700 28.859175 -14.591069 -16.871195 -3.791945 -11.018217 33.743818 -2.276939 1.862034 -27.756969 -2.430000 9.709600 -28.041300 1.403853 5.841231 -5.445569 0.391238 2.709900 0.288892 3.974488 -4.775751 24.128537 -0.497400 -1.684500 7.999800 -90.123800 23.634344 32.462000 54.968964 -54.806872 -23.736317 -1.718605 0.934602 -13.623097 -7.125000 0.000000 0.000000 82.765174 -12.439769 36.939187 -71.562472 58.009207 -40.366192 0.854387 -0.667601 -11.429139 7.125000 0.000000 0.000000 
-8.582608 17.257054 14.811373 -168.337316 -5.327552 -166.053818 -11.893578 16.716313 -51.768971 9.430510 17.480047 57.932774 1.203611 10.558538 -28.631774 0.107300 2.112200 5.815700 29.097593 -16.196262 -17.954833 -4.095209 -11.448533 35.247873 -2.131617 3.184476 -26.463037 -2.636000 10.081100 -29.239800 1.701031 5.652098 -5.571763 0.764929 2.607394 0.222326 3.963436 -5.152953 24.329288 -0.509800 -1.879000 8.076500 -90.828787 24.539848 31.838480 54.988271 -54.842291 -23.773795 -1.761220 0.957347 -14.703951 -7.125000 0.000000 0.000000 83.013524 -13.070503 34.564393 -72.360538 58.080381 -40.959007 0.819931 -0.642309 -14.400774 7.125000 0.000000 0.000000 
-8.633325 17.273503 14.779530 -168.011343 -6.953656 -166.276703 -11.788342 16.397812 -51.138120 9.071898 17.266722 56.773948 1.438207 9.369355 -29.071709 0.155200 2.538200 6.995600 29.144549 -17.462418 -19.384020 -4.526022 -12.020768 37.302457 -1.934679 4.762547 -24.821750 -2.936200 10.591100 -30.912900 1.967636 5.512660 -5.705542 1.155097 2.530085 0.260294 3.873531 -5.523896 24.317051 -0.583700 -2.071000 8.023500 -91.498558 25.385388 31.187106 54.942178 -54.837917 -23.729477 -1.743389 1.000387 -15.620184 -7.125000 0.000000 0.000000 83.175922 -13.710571 32.268786 -72.979050 58.126789 -41.418357 0.790136 -0.622499 -17.283801 7.125000 0.000000 0.000000 
-8.692266 17.299019 14.750323 -167.851140 -8.801445 -166.865450 -11.361368 15.697477 -49.815889 8.738929 17.058359 55.668769 1.633682 7.877701 -29.055683 0.177200 2.711600 7.477000 28.768141 -18.791015 -20.757860 -5.120592 -12.759742 40.035040 -1.674346 6.426053 -22.793120 -3.285400 11.143300 -32.764700 2.245537 5.214629 -5.730767 1.585733 2.379998 0.239779 4.051951 -5.850445 24.316718 -0.514800 -2.234500 8.012900 -92.253042 26.176209 30.423086 55.141938 -54.948782 -23.900473 -1.769041 1.038358 -15.942393 -7.125000 0.000000 0.000000 83.150184 -14.171037 30.129011 -73.216901 58.134753 -41.578890 0.770444 -0.614559 -19.809037 7.125000 0.000000 0.000000 
-8.754897 17.315995 14.728075 -167.687183 -10.573947 -167.552507 -10.685797 14.758398 -48.211760 8.427989 16.853166 54.607111 1.822199 6.131437 -28.854469 0.212400 2.967100 8.187200 28.111843 -19.925437 -22.340109 -5.895888 -13.625845 43.401260 -1.296452 8.467915 -19.925756 -3.574300 11.571300 -34.231800 2.475893 4.994486 -5.732298 1.899663 2.267046 0.192649 4.215065 -6.236869 24.413155 -0.475200 -2.418200 8.051500 -92.808205 26.955869 29.844326 55.430160 -55.063822 -24.118043 -1.735341 1.130117 -16.131293 -7.125000 0.000000 0.000000 83.146269 -14.556595 27.997511 -72.930287 58.096769 -41.318984 0.765678 -0.619070 -21.837049 7.125000 0.000000 0.000000 
-8.822168 17.334131 14.716582 -167.748775 -12.162530 -168.174914 -10.150498 13.627670 -46.478740 8.132553 16.648674 53.568242 2.191806 3.322573 -29.056170 0.556000 4.776500 13.272300 26.890850 -20.657041 -24.223871 -6.855128 -14.570598 47.321659 -0.709914 11.009564 -15.400129 -3.421500 11.348000 -33.462900 2.707482 4.680426 -5.623762 2.383066 2.111451 0.311597 4.294861 -6.447272 24.589323 -0.420200 -2.523900 8.189200 -93.824621 27.215542 28.712901 55.054227 -54.982063 -23.814018 -1.634066 1.206903 -15.606293 -7.125000 0.000000 0.000000 82.692906 -14.595232 26.385493 -72.186296 58.011433 -40.702157 0.775856 -0.642101 -23.171127 7.125000 0.000000 0.000000 
-8.891547 17.363022 14.709518 -167.944643 -13.611606 -168.777241 -9.859258 12.614168 -44.824205 7.851131 16.443101 52.555648 2.421223 0.767888 -28.784773 0.932800 6.152300 17.227100 25.170107 -20.702428 -26.170784 -7.978600 -15.534186 51.659078 -0.043459 13.530657 -9.777628 -3.179800 10.980600 -32.214600 2.829895 4.481894 -5.580815 2.690516 2.011827 0.278548 4.200176 -6.690054 24.713363 -0.470000 -2.651100 8.236500 -94.581606 27.614763 27.700893 54.327704 -54.857030 -23.520199 -1.790737 1.392162 -15.312138 -7.125000 0.000000 0.000000 82.266752 -14.838007 24.975380 -71.356421 57.905533 -40.052411 0.814622 -0.679505 -23.512058 7.125000 0.000000 0.000000 
-8.959029 17.404565 14.705300 -168.406007 -14.895223 -169.444114 -9.974891 11.805206 -43.232611 7.564510 16.230882 51.555054 2.442608 -0.773319 -28.010283 1.110300 6.694500 18.813300 22.799865 -20.028219 -27.934008 -9.222060 -16.449797 56.211878 0.631202 15.804768 -2.520468 -2.554900 9.937000 -28.772900 2.900667 4.311576 -5.534363 3.024981 1.931550 0.121188 4.192085 -6.937391 24.994862 -0.463000 -2.784800 8.341700 -95.150433 28.306956 26.913782 54.299780 -54.859773 -23.503943 -1.736956 1.460270 -14.507951 -7.125000 0.000000 0.000000 81.763835 -15.192880 23.898528 -70.567454 57.792973 -39.478793 0.871459 -0.730955 -22.710352 7.125000 0.000000 0.000000 
-9.024085 17.451064 14.701504 -169.021145 -15.866075 -169.858418 -10.605509 11.462742 -42.176569 7.269282 16.010112 50.546090 2.403583 -1.676766 -27.268235 1.300100 7.223800 20.380100 20.043661 -18.541381 -29.838928 -10.556869 -17.279753 60.878773 1.034384 17.269583 6.890088 -1.633200 8.056200 -22.885000 2.955651 4.158807 -5.342743 3.477837 1.857353 0.359351 3.925804 -6.987233 25.193978 -0.534000 -2.832600 8.472300 -95.868774 28.595715 26.114715 53.790450 -54.689355 -23.088993 -1.572257 1.545413 -14.351193 -7.125000 0.000000 0.000000 80.875152 -15.129598 23.287301 -69.874711 57.707990 -39.029771 0.927776 -0.758229 -20.805910 7.125000 0.000000 0.000000 
-9.080390 17.505049 14.701082 -169.759246 -16.713001 -170.288300 -11.488261 11.386924 -41.248978 6.975266 15.785208 49.555997 2.285569 -1.958586 -26.382309 1.354600 7.367600 20.809200 16.928207 -16.276339 -31.458910 -11.938151 -18.002213 65.566227 0.707372 17.230795 16.694835 -0.963600 6.250200 -17.512000 2.953877 4.158015 -5.234886 3.852183 1.863615 0.275229 3.717746 -7.170836 25.503098 -0.581300 -2.951900 8.634400 -96.173440 29.104222 25.854547 53.604701 -54.631399 -22.987024 -1.477634 1.651508 -14.425465 -7.125000 0.000000 0.000000 80.150377 -15.464748 22.686994 -69.773457 57.691377 -39.088068 0.979643 -0.764058 -17.222570 7.125000 0.000000 0.000000 
-9.128893 17.565256 14.705722 -170.689588 -17.669075 -170.675592 -12.577561 11.276684 -40.324584 6.670387 15.545542 48.530583 2.145403 -2.001647 -25.469729 1.363100 7.389700 20.875100 13.429077 -13.759710 -32.897562 -13.335086 -18.608129 70.231606 -0.343140 16.610484 26.380118 -0.255400 3.251700 -8.980300 2.953309 4.031249 -5.126067 4.337248 1.807260 0.156538 3.264528 -7.191740 25.599001 -0.717300 -3.011900 8.664900 -96.453526 29.631412 25.555624 53.444163 -54.536229 -22.801384 -1.353303 1.653294 -14.795602 -7.125000 0.000000 0.000000 79.310057 -15.805641 22.284441 -69.950330 57.707727 -39.367884 1.018731 -0.756906 -12.103635 7.125000 0.000000 0.000000 
-9.171385 17.611965 14.715844 -171.502897 -18.534614 -171.132399 -13.449428 11.100125 -39.234914 6.366991 15.295787 47.482999 2.033551 -2.103635 -24.683013 1.397400 7.478400 21.140500 9.899743 -11.043056 -34.157574 -14.725727 -19.091564 74.829806 -1.871027 16.196967 35.398754 -0.045400 1.375600 -3.782800 3.006612 3.952323 -4.921475 4.874264 1.767375 0.188572 2.795724 -7.183589 25.537190 -0.847200 -3.063800 8.641700 -96.574503 30.012061 25.772711 53.521292 -54.576929 -22.882843 -1.288474 1.718487 -15.612991 -7.125000 0.000000 0.000000 78.416895 -16.000511 21.766129 -70.315535 57.752039 -39.774466 1.052771 -0.747944 -5.939675 7.125000 0.000000 0.000000 
-9.207446 17.655829 14.725650 -172.281080 -19.305304 -171.734300 -14.140770 10.824811 -37.808479 6.035655 15.010094 46.311256 1.940943 -2.173169 -24.026655 1.427900 7.556000 21.373300 6.227111 -8.123346 -35.342175 -16.095809 -19.473663 79.386857 -4.179444 12.882070 43.702725 -0.038700 -1.270000 3.492100 3.066956 3.868006 -4.719558 5.402322 1.724064 0.090708 2.430747 -7.167191 25.499422 -0.922100 -3.112400 8.623300 -96.650388 30.425564 26.114307 53.676296 -54.654748 -23.046909 -1.247438 1.794272 -16.495099 -7.125000 0.000000 0.000000 77.568012 -16.229159 21.259988 -70.828819 57.801614 -40.257070 1.090175 -0.750716 0.814432 7.125000 0.000000 0.000000 
-9.247197 17.705385 14.731133 -172.832485 -20.083126 -172.551958 -14.489681 10.414979 -36.000974 5.700434 14.701530 45.082068 1.893520 -2.468994 -23.534168 1.550800 7.860000 22.289700 2.684926 -5.215977 -36.389427 -17.496867 -19.739244 83.852508 -5.909948 11.412970 49.805318 -0.360700 -3.858000 10.677600 3.154831 3.806047 -4.437893 5.799879 1.678182 0.093198 2.045967 -7.153755 25.388427 -1.026000 -3.153900 8.578200 -96.506876 30.755756 26.710643 53.992433 -54.771405 -23.307580 -1.233169 1.838526 -17.499822 -7.125000 0.000000 0.000000 76.922185 -16.392133 20.402041 -71.499165 57.868319 -40.820591 1.132672 -0.786010 7.668201 7.125000 0.000000 0.000000 
-9.281781 17.753571 14.736616 -173.319091 -21.012615 -173.440856 -14.736416 9.787562 -34.026400 5.361927 14.368538 43.810619 1.853902 -2.641577 -23.164365 1.663300 8.126300 23.098500 -0.863909 -2.297236 -37.502698 -18.957323 -19.884872 88.286297 -6.487223 11.871608 52.243800 -0.704700 -5.365500 14.954100 3.168958 3.687742 -4.264200 5.927884 1.612774 -0.222310 1.824378 -7.251642 25.341955 -1.102200 -3.229300 8.533100 -96.006057 31.271673 27.506685 54.517573 -54.910935 -23.706883 -1.251304 1.864117 -18.475087 -7.125000 0.000000 0.000000 76.609881 -16.711172 19.388577 -72.347785 57.934016 -41.480599 1.168780 -0.859718 13.987083 7.125000 0.000000 0.000000 
